<?xml version="1.0" encoding="utf-8"?>
<!-- Svg Vector Icons : http://www.onlinewebfonts.com/icon -->
<!DOCTYPE svg PUBLIC "-//W3C//DTD SVG 1.1//EN" "http://www.w3.org/Graphics/SVG/1.1/DTD/svg11.dtd">
<svg version="1.1" xmlns="http://www.w3.org/2000/svg" xmlns:xlink="http://www.w3.org/1999/xlink" x="0px" y="0px" viewBox="0 0 1000 1000" enable-background="new 0 0 1000 1000" xml:space="preserve">
<metadata> Svg Vector Icons : http://www.onlinewebfonts.com/icon </metadata>
<g><path d="M881.6,775.6c3.3,9.8,5.7,22.4,7.3,37.7c1.6,15.3,2.4,30.8,2.4,46.5c0,15.7-1.1,30.3-3.4,44.1c-2.3,13.7-5.7,24.1-10.3,31.3c-3.3,4.6-12.2,9.1-26.9,13.7c-14.7,4.6-32.8,9-54.3,13.2c-21.5,4.2-45.7,8-72.4,11.3c-26.8,3.3-53.5,6.2-80.3,8.8c-26.8,2.6-52.7,4.6-77.8,5.9c-25.1,1.3-47.2,2-66.1,2c-18.9,0-40.8-0.8-65.6-2.4c-24.8-1.6-50.4-3.6-76.9-5.9c-26.4-2.3-52.5-4.9-78.3-7.8c-25.8-2.9-49.4-6-71-9.3c-21.5-3.3-39.7-6.5-54.3-9.8c-14.7-3.3-24-6.5-27.9-9.8c-6.5-5.2-11.6-21.2-15.2-48c-3.6-26.8-2.4-61.4,3.4-103.8c3.9-24.1,13.7-42.4,29.4-54.8c15.7-12.4,33.9-22.4,54.8-29.9c20.9-7.5,42.6-14.2,65.1-20.1c22.5-5.9,42.6-14.4,60.2-25.5c13.7-8.5,24.1-16.6,31.3-24.5c7.2-7.8,12.4-15.7,15.7-23.5c3.3-7.8,4.9-16,4.9-24.5s-0.3-17.9-1-28.4c-1.3-15-6.5-26.9-15.7-35.7s-18.9-17.8-29.4-26.9c-5.2-4.6-10-10.9-14.2-19.1c-4.2-8.2-8-16.5-11.3-25c-3.3-9.8-6.5-20.2-9.8-31.3c-5.9-0.7-11.7-2.6-17.6-5.9c-5.2-3.3-10.4-8-15.7-14.2s-9.5-14.8-12.7-25.9c-3.3-11.1-4.1-21.2-2.4-30.3c1.6-9.1,4.4-17,8.3-23.5c3.9-7.2,9.5-14,16.6-20.6c0-24.8,1.3-49.6,3.9-74.4c2.6-20.9,7.2-43.2,13.7-67.1c6.5-23.8,16.6-45.2,30.3-64.1c12.4-18.3,26.1-33.1,41.1-44.5c15-11.4,30.5-20.4,46.5-26.9c16-6.5,31.8-10.9,47.5-13.2s31-3.4,46-3.4c18.9,0,37,2.1,54.3,6.4c17.3,4.2,33.3,10,48,17.1c14.7,7.2,27.9,15.3,39.6,24.5c11.7,9.1,21.5,18.3,29.4,27.4c16.3,20.9,28.6,44.1,36.7,69.5s13.9,49.3,17.1,71.5c3.3,26.1,4.6,52.2,3.9,78.3c5.9,3.3,10.8,7.5,14.7,12.7c3.3,4.6,6.2,10.4,8.8,17.6c2.6,7.2,3.3,16,2,26.4c-1.3,14.4-4.6,25.5-9.8,33.3c-5.2,7.8-10.8,14-16.6,18.6c-7.2,5.2-14.7,8.8-22.5,10.8c-3.3,11.1-6.5,21.5-9.8,31.3c-3.3,8.5-7,16.8-11.3,25c-4.2,8.2-9,14.5-14.2,19.1c-11.7,9.8-21.5,18.1-29.4,25c-7.8,6.9-13.1,18.4-15.7,34.8c-2,9.8-2.8,19.7-2.4,29.9c0.3,10.1,2.9,20.2,7.8,30.4c4.9,10.1,12.4,19.7,22.5,28.9s24.3,17.3,42.6,24.5c15.7,6.5,33.1,12.4,52.4,17.6c19.3,5.2,37.9,11.3,55.8,18.1c18,6.9,33.9,15.3,48,25.5C865.8,744.1,875.7,758,881.6,775.6L881.6,775.6z M502.7,562.2c11.7,0,21.9-4.2,30.3-12.7c8.5-8.5,12.7-18.9,12.7-31.3c0-12.4-4.2-22.8-12.7-31.3c-8.5-8.5-18.6-12.7-30.3-12.7c-12.4,0-22.8,4.2-31.3,12.7c-8.5,8.5-12.7,18.9-12.7,31.3c0,12.4,4.2,22.8,12.7,31.3C479.9,557.9,490.3,562.2,502.7,562.2z M539,385c-0.7-7.8,3.9-16.2,13.7-25c9.8-8.8,20.9-18.4,33.3-28.9c12.4-10.4,23.8-22.4,34.3-35.7c10.4-13.4,16.3-28.6,17.6-45.5c0.7-18.3-1.3-35.6-5.9-51.9s-12.4-30.5-23.5-42.6c-11.1-12.1-25.3-21.5-42.6-28.4c-17.3-6.9-37.7-10.3-61.2-10.3c-28.7,0-52.9,5.2-72.4,15.7c-19.6,10.4-35.2,22.8-47,37.2c-11.7,14.4-19.9,29.5-24.5,45.5c-4.6,16-6.9,29.2-6.9,39.7c0.7,12.4,4.6,21.4,11.7,26.9c7.2,5.5,15.2,8.5,24,8.8c8.8,0.3,16.8-2.1,24-7.3c7.2-5.2,10.8-12.4,10.8-21.5c0-5.9,1.8-12.9,5.4-21s8.5-16.2,14.7-24c6.2-7.8,13.7-14.4,22.5-19.6c8.8-5.2,18.4-7.8,28.9-7.8c21.5,0,38.7,5.4,51.4,16.2c12.7,10.8,18.8,24.3,18.1,40.6c0,12.4-5.1,23.3-15.2,32.8c-10.1,9.5-21.2,19.1-33.3,28.9c-12.1,9.8-23.3,20.2-33.8,31.3c-10.4,11.1-16,24.1-16.6,39.2v26.4c0.7,7.2,4.2,14,10.8,20.6c6.5,6.5,15.3,10.1,26.4,10.8c11.1-0.7,19.7-4.2,25.9-10.8c6.2-6.5,9.3-14.4,9.3-23.5V385L539,385z"/></g>
</svg>